<svg xmlns="http://www.w3.org/2000/svg" viewBox="314 45 445 516">
<defs>
<linearGradient id="grad" x1="25%" y1="15%" x2="85%" y2="65%">
<stop offset="0%" stop-color="#6b7896"/>
<stop offset="55%" stop-color="#6ea78a"/>
<stop offset="100%" stop-color="#6fe06b"/>
</linearGradient>
</defs>
<g fill="url(#grad)" fill-rule="evenodd">
<path d="M 522 419 L 521 419 L 520 420 L 520 421 L 521 421 L 522 420 Z"/>
<path d="M 614 215 L 613 215 L 612 216 L 612 217 L 613 217 L 614 216 Z"/>
<path d="M 650 183 Z"/>
<path d="M 759 40 L 522 245 L 529 265 L 551 266 L 723 118 L 723 179 L 595 272 L 585 293 L 608 305 L 722 218 L 724 268 L 605 360 L 458 249 L 684 45 L 314 45 L 314 356 L 339 416 L 376 458 L 542 561 L 671 478 L 715 437 L 756 359 Z M 549 457 L 550 458 L 551 458 L 556 463 L 557 463 L 559 466 L 560 466 L 568 474 L 569 474 L 582 487 L 583 487 L 586 490 L 587 490 L 589 492 L 589 493 L 590 493 L 591 494 L 591 495 L 589 497 L 587 497 L 585 500 L 580 502 L 578 504 L 575 505 L 572 508 L 569 509 L 564 513 L 563 513 L 562 514 L 561 514 L 559 516 L 556 517 L 552 521 L 549 522 L 547 524 L 544 525 L 542 527 L 539 527 L 537 525 L 535 525 L 534 524 L 533 524 L 530 521 L 529 521 L 528 520 L 527 520 L 525 518 L 522 517 L 517 513 L 516 513 L 515 512 L 513 512 L 510 509 L 507 508 L 504 505 L 503 505 L 502 504 L 501 504 L 499 502 L 496 501 L 495 500 L 495 498 L 503 491 L 504 491 L 508 487 L 509 487 L 511 485 L 512 485 L 520 478 L 521 478 L 525 474 L 526 474 L 529 471 L 530 471 L 534 467 L 535 467 L 545 458 L 546 458 L 547 457 Z M 724 317 L 725 318 L 725 327 L 724 328 L 724 348 L 723 349 L 722 363 L 718 375 L 715 379 L 715 381 L 710 390 L 690 416 L 666 440 L 646 456 L 643 454 L 644 457 L 641 460 L 638 461 L 621 474 L 617 472 L 582 436 L 583 432 L 616 402 L 622 398 L 628 391 L 634 387 L 652 370 L 658 366 L 661 362 L 687 342 L 700 330 L 703 329 L 704 327 L 711 322 L 712 324 L 714 324 L 713 321 L 717 317 L 719 316 L 721 317 L 720 318 Z M 593 74 L 569 100 L 448 206 L 442 125 L 423 117 L 409 129 L 409 258 L 559 370 L 560 374 L 554 372 L 554 379 L 562 376 L 536 396 L 533 425 L 463 478 L 402 436 L 365 394 L 348 354 L 349 307 L 500 421 L 512 422 L 526 416 L 527 397 L 516 384 L 350 263 L 350 75 Z"/>
</g>
</svg>
