<svg xmlns="http://www.w3.org/2000/svg" viewBox="0 0 1088 783">
<defs>
<linearGradient id="grad" x1="25%" y1="15%" x2="85%" y2="65%">
<stop offset="0%" stop-color="#6b7896"/>
<stop offset="55%" stop-color="#6ea78a"/>
<stop offset="100%" stop-color="#6fe06b"/>
</linearGradient>
</defs>
<g fill="url(#grad)" fill-rule="evenodd">
<path d="M 522 419 L 521 419 L 520 420 L 520 421 L 521 421 L 522 420 Z"/>
<path d="M 614 215 L 613 215 L 612 216 L 612 217 L 613 217 L 614 216 Z"/>
<path d="M 650 183 Z"/>
<path d="M 759 40 L 522 245 L 529 265 L 551 266 L 723 118 L 723 179 L 595 272 L 585 293 L 608 305 L 722 218 L 724 268 L 605 360 L 458 249 L 684 45 L 314 45 L 314 356 L 339 416 L 376 458 L 542 561 L 671 478 L 715 437 L 756 359 Z M 549 457 L 550 458 L 551 458 L 556 463 L 557 463 L 559 466 L 560 466 L 568 474 L 569 474 L 582 487 L 583 487 L 586 490 L 587 490 L 589 492 L 589 493 L 590 493 L 591 494 L 591 495 L 589 497 L 587 497 L 585 500 L 580 502 L 578 504 L 575 505 L 572 508 L 569 509 L 564 513 L 563 513 L 562 514 L 561 514 L 559 516 L 556 517 L 552 521 L 549 522 L 547 524 L 544 525 L 542 527 L 539 527 L 537 525 L 535 525 L 534 524 L 533 524 L 530 521 L 529 521 L 528 520 L 527 520 L 525 518 L 522 517 L 517 513 L 516 513 L 515 512 L 513 512 L 510 509 L 507 508 L 504 505 L 503 505 L 502 504 L 501 504 L 499 502 L 496 501 L 495 500 L 495 498 L 503 491 L 504 491 L 508 487 L 509 487 L 511 485 L 512 485 L 520 478 L 521 478 L 525 474 L 526 474 L 529 471 L 530 471 L 534 467 L 535 467 L 545 458 L 546 458 L 547 457 Z M 724 317 L 725 318 L 725 327 L 724 328 L 724 348 L 723 349 L 722 363 L 718 375 L 715 379 L 715 381 L 710 390 L 690 416 L 666 440 L 646 456 L 643 454 L 644 457 L 641 460 L 638 461 L 621 474 L 617 472 L 582 436 L 583 432 L 616 402 L 622 398 L 628 391 L 634 387 L 652 370 L 658 366 L 661 362 L 687 342 L 700 330 L 703 329 L 704 327 L 711 322 L 712 324 L 714 324 L 713 321 L 717 317 L 719 316 L 721 317 L 720 318 Z M 593 74 L 569 100 L 448 206 L 442 125 L 423 117 L 409 129 L 409 258 L 559 370 L 560 374 L 554 372 L 554 379 L 562 376 L 536 396 L 533 425 L 463 478 L 402 436 L 365 394 L 348 354 L 349 307 L 500 421 L 512 422 L 526 416 L 527 397 L 516 384 L 350 263 L 350 75 Z"/>
</g>
<g fill="#1e293b" fill-rule="evenodd">
<path d="M 755 663 L 754 664 L 754 665 L 755 666 L 755 678 L 778 678 L 779 679 L 779 741 L 796 741 L 796 679 L 797 678 L 820 678 L 821 677 L 821 664 L 820 663 Z"/>
<path d="M 657 663 L 657 739 L 656 740 L 657 741 L 673 741 L 673 696 L 675 695 L 708 741 L 725 741 L 726 740 L 726 664 L 725 663 L 710 663 L 709 664 L 709 712 L 708 713 L 704 709 L 703 706 L 700 703 L 698 699 L 691 691 L 691 689 L 683 680 L 682 677 L 679 675 L 679 673 L 671 663 Z"/>
<path d="M 607 663 L 606 664 L 606 741 L 623 741 L 623 663 Z"/>
<path d="M 509 663 L 509 665 L 514 671 L 514 673 L 517 676 L 518 679 L 521 682 L 522 685 L 526 690 L 527 693 L 530 696 L 531 699 L 533 701 L 533 702 L 535 704 L 535 705 L 537 707 L 539 711 L 539 741 L 540 742 L 541 741 L 556 741 L 557 740 L 556 739 L 556 733 L 557 732 L 557 723 L 556 722 L 556 712 L 559 709 L 559 707 L 562 704 L 564 699 L 567 696 L 568 693 L 571 690 L 572 687 L 574 686 L 576 681 L 579 678 L 580 675 L 582 673 L 584 669 L 587 666 L 587 664 L 586 663 L 569 663 L 567 664 L 561 676 L 559 677 L 557 682 L 554 685 L 554 687 L 551 690 L 550 693 L 548 694 L 543 688 L 543 686 L 539 681 L 538 678 L 535 675 L 535 673 L 531 668 L 531 666 L 530 664 L 528 663 Z"/>
<path d="M 448 663 L 447 664 L 447 740 L 448 741 L 504 741 L 504 740 L 505 739 L 504 738 L 504 727 L 465 727 L 464 726 L 464 663 Z"/>
<path d="M 415 668 L 414 668 L 409 665 L 406 665 L 405 664 L 399 664 L 398 663 L 357 663 L 356 664 L 356 741 L 374 741 L 374 720 L 375 719 L 403 719 L 404 718 L 409 718 L 410 717 L 412 717 L 414 715 L 415 715 L 423 707 L 423 706 L 424 705 L 424 703 L 426 700 L 426 697 L 427 696 L 427 687 L 426 686 L 426 682 L 424 680 L 424 678 L 423 677 L 423 676 Z M 374 679 L 375 678 L 399 678 L 400 679 L 401 679 L 403 681 L 404 681 L 407 684 L 407 686 L 408 687 L 408 688 L 409 689 L 409 695 L 407 697 L 407 699 L 402 704 L 401 704 L 400 705 L 397 705 L 396 706 L 375 706 L 374 705 Z"/>
<path d="M 238 664 L 238 741 L 255 741 L 256 740 L 255 739 L 255 694 L 256 693 L 261 700 L 263 706 L 273 722 L 274 726 L 276 727 L 277 726 L 290 726 L 291 723 L 294 720 L 295 716 L 298 713 L 300 707 L 302 706 L 303 702 L 308 695 L 309 696 L 309 741 L 326 741 L 326 664 L 325 663 L 311 663 L 307 666 L 283 707 L 281 706 L 281 704 L 283 703 L 285 698 L 280 702 L 278 700 L 257 663 L 239 663 Z"/>
<path d="M 41 663 L 40 664 L 40 740 L 41 741 L 57 741 L 58 740 L 58 723 L 57 722 L 57 718 L 59 714 L 62 711 L 65 710 L 69 714 L 70 717 L 82 731 L 83 734 L 86 736 L 89 741 L 111 741 L 106 733 L 103 731 L 99 725 L 91 717 L 83 706 L 81 705 L 78 701 L 79 698 L 87 690 L 95 679 L 105 669 L 108 665 L 108 663 L 90 663 L 89 664 L 87 664 L 82 671 L 79 673 L 75 679 L 59 696 L 57 695 L 58 694 L 57 664 L 56 663 Z"/>
<path d="M 971 662 L 969 664 L 971 668 L 974 671 L 975 674 L 981 682 L 982 685 L 984 687 L 986 691 L 989 694 L 995 706 L 997 707 L 999 711 L 999 740 L 1000 741 L 1016 741 L 1016 712 L 1018 710 L 1018 708 L 1019 706 L 1022 703 L 1023 700 L 1025 698 L 1027 694 L 1030 691 L 1032 686 L 1038 679 L 1040 674 L 1043 671 L 1044 668 L 1047 665 L 1047 663 L 1029 663 L 1027 664 L 1025 668 L 1023 670 L 1022 673 L 1019 676 L 1017 681 L 1015 683 L 1013 687 L 1010 690 L 1009 693 L 1007 694 L 1004 691 L 1002 686 L 999 683 L 999 681 L 996 677 L 995 674 L 991 669 L 990 666 L 987 663 L 972 663 Z"/>
<path d="M 894 666 L 894 667 L 893 668 L 891 668 L 889 670 L 888 670 L 878 680 L 878 681 L 875 685 L 875 687 L 874 688 L 874 692 L 873 693 L 873 712 L 874 713 L 874 716 L 875 717 L 875 719 L 878 723 L 878 725 L 883 730 L 883 731 L 884 731 L 887 734 L 890 735 L 894 738 L 896 738 L 897 739 L 898 739 L 900 741 L 904 741 L 905 742 L 926 742 L 927 741 L 931 741 L 936 738 L 938 738 L 939 737 L 940 737 L 942 735 L 943 735 L 945 733 L 946 733 L 947 732 L 947 731 L 948 730 L 949 730 L 954 724 L 954 723 L 955 722 L 955 720 L 958 716 L 958 713 L 959 712 L 959 693 L 958 692 L 958 688 L 956 686 L 954 680 L 944 670 L 939 668 L 935 665 L 933 665 L 932 664 L 928 664 L 926 662 L 907 662 L 904 664 L 901 664 L 900 665 L 897 665 L 896 666 Z M 904 679 L 906 679 L 907 678 L 910 678 L 911 677 L 922 677 L 923 678 L 926 678 L 928 680 L 929 680 L 930 681 L 931 681 L 937 687 L 937 688 L 938 689 L 938 690 L 939 691 L 939 693 L 940 694 L 940 695 L 941 696 L 941 709 L 940 710 L 940 711 L 939 712 L 939 714 L 938 715 L 938 717 L 931 724 L 930 724 L 929 725 L 928 725 L 927 726 L 924 726 L 922 728 L 910 728 L 908 726 L 905 726 L 904 725 L 903 725 L 894 716 L 894 715 L 893 714 L 893 713 L 892 712 L 892 710 L 891 709 L 891 694 L 892 693 L 892 691 L 893 690 L 894 690 L 894 689 L 895 688 L 895 687 L 901 681 L 902 681 Z"/>
<path d="M 150 666 L 148 668 L 145 669 L 142 672 L 141 672 L 134 679 L 133 682 L 130 686 L 130 688 L 129 689 L 129 692 L 127 694 L 127 711 L 129 714 L 130 719 L 133 723 L 134 726 L 142 734 L 145 735 L 147 737 L 148 737 L 151 739 L 153 739 L 156 741 L 159 741 L 160 742 L 182 742 L 183 741 L 187 741 L 189 739 L 191 739 L 192 738 L 194 738 L 195 737 L 196 737 L 199 734 L 200 734 L 209 725 L 209 724 L 211 722 L 211 720 L 214 715 L 214 712 L 215 711 L 215 694 L 214 693 L 214 689 L 212 687 L 210 681 L 208 679 L 208 678 L 202 672 L 201 672 L 198 669 L 195 668 L 191 665 L 188 665 L 187 664 L 185 664 L 182 662 L 162 662 L 159 664 L 156 664 L 155 665 Z M 161 678 L 165 678 L 166 677 L 177 677 L 178 678 L 181 678 L 182 679 L 183 679 L 185 681 L 186 681 L 187 682 L 188 682 L 190 684 L 190 685 L 193 688 L 193 689 L 194 690 L 194 691 L 195 692 L 195 695 L 196 696 L 196 698 L 197 699 L 197 708 L 195 710 L 195 713 L 194 714 L 194 715 L 193 716 L 193 717 L 190 720 L 190 721 L 189 722 L 188 722 L 185 725 L 183 725 L 182 726 L 180 726 L 179 727 L 178 727 L 177 728 L 166 728 L 165 727 L 164 727 L 163 726 L 161 726 L 160 725 L 158 725 L 157 724 L 156 724 L 155 723 L 155 722 L 154 722 L 151 719 L 151 718 L 148 715 L 148 713 L 147 712 L 147 709 L 146 708 L 146 696 L 147 695 L 147 692 L 148 691 L 148 690 L 150 688 L 150 687 L 156 681 L 157 681 L 159 679 L 160 679 Z"/>
</g>
</svg>
